<svg xmlns="http://www.w3.org/2000/svg" viewBox="0 0 697 697"><defs><style>.cls-1{fill:#fff;}</style></defs><g id="Layer_2" data-name="Layer 2"><g id="Layer_1-2" data-name="Layer 1"><polygon class="cls-1" points="408.11 346.06 320.31 346.06 320.31 298.32 319.72 299.06 241.42 397.65 231.2 397.65 154.87 297.6 154.87 476.18 97.9 476.18 97.9 220.53 163.27 220.53 237.77 318.77 312.64 220.53 377.28 220.53 377.28 338.33 397.46 338.33 408.11 346.06"/><polygon class="cls-1" points="599.1 220.82 599.1 476.46 533.73 476.46 459.23 378.23 384.36 476.46 319.72 476.46 319.72 371.37 299.06 371.37 288.41 363.64 376.69 363.64 376.69 398.68 377.28 397.94 455.58 299.35 465.8 299.35 542.13 399.4 542.13 220.82 599.1 220.82"/><path class="cls-1" d="M348.5,697A348.58,348.58,0,0,1,212.84,27.4,348.58,348.58,0,0,1,484.16,669.6,346.32,346.32,0,0,1,348.5,697Zm0-657C178.39,40,40,178.39,40,348.5S178.39,657,348.5,657,657,518.61,657,348.5,518.61,40,348.5,40Z"/></g></g></svg>