<svg width="1022" height="1051" viewBox="0 0 1022 1051" fill="none" xmlns="http://www.w3.org/2000/svg">
<path d="M705.763 764.479C473.602 731.927 311.788 517.334 344.34 285.173C359.366 178.011 413.177 85.8375 489.599 20.8485C256.897 37.4442 59.3182 214.457 25.6186 454.798C-13.1346 731.18 179.502 986.647 455.884 1025.4C697.052 1059.22 922.296 916.849 1001.53 696.393C917.734 752.762 813.645 779.606 705.763 764.479Z" fill="#FFC83D" stroke="black" stroke-width="40" stroke-linejoin="round"/>
<circle r="46" transform="matrix(-0.990312 -0.138858 -0.138858 0.990312 543.406 953.354)" fill="#EBA300"/>
<circle r="39" transform="matrix(-0.990312 -0.138858 -0.138858 0.990312 278.587 213.413)" fill="#EBA300"/>
<circle r="57.5" transform="matrix(-0.990312 -0.138858 -0.138858 0.990312 205.051 323.771)" fill="#EBA300"/>
</svg>
