<svg width="1042" height="1042" viewBox="0 0 1042 1042" fill="none" xmlns="http://www.w3.org/2000/svg">
<path d="M607.54 28.9127C617.42 15.4755 638.531 19.9628 642.091 36.2567L674.827 186.072C677.439 198.027 690.338 204.599 701.545 199.686L841.99 138.11C857.265 131.413 873.304 145.855 868.24 161.746L821.682 307.858C817.967 319.516 825.852 331.658 838.014 333.006L990.43 349.902C1007.01 351.74 1013.68 372.266 1001.35 383.497L887.969 486.754C878.923 494.993 879.68 509.451 889.539 516.7L1013.09 607.54C1026.52 617.42 1022.04 638.531 1005.74 642.091L855.928 674.827C843.973 677.439 837.401 690.338 842.314 701.545L903.89 841.99C910.587 857.265 896.145 873.304 880.254 868.24L734.142 821.682C722.484 817.967 710.342 825.852 708.994 838.014L692.098 990.43C690.26 1007.01 669.734 1013.68 658.503 1001.35L555.246 887.969C547.007 878.923 532.549 879.68 525.301 889.539L434.46 1013.09C424.58 1026.52 403.469 1022.04 399.909 1005.74L367.173 855.928C364.561 843.973 351.662 837.401 340.455 842.314L200.01 903.89C184.735 910.587 168.696 896.145 173.76 880.254L220.318 734.142C224.033 722.484 216.148 710.342 203.986 708.994L51.5697 692.098C34.9929 690.26 28.3235 669.734 40.6543 658.503L154.031 555.246C163.077 547.007 162.32 532.549 152.461 525.301L28.9127 434.46C15.4755 424.58 19.9628 403.469 36.2567 399.909L186.072 367.173C198.027 364.561 204.599 351.662 199.686 340.455L138.11 200.01C131.413 184.735 145.855 168.696 161.746 173.76L307.858 220.318C319.516 224.033 331.658 216.148 333.006 203.986L349.902 51.5697C351.74 34.9929 372.266 28.3235 383.497 40.6543L486.754 154.031C494.993 163.077 509.451 162.32 516.7 152.461L607.54 28.9127Z" fill="#FFB900" stroke="black" stroke-width="40"/>
<circle cx="521" cy="521" r="300" fill="#FCE100"/>
</svg>
